# xmcd
#
# Track frame offsets: 
#        150
#        19260
#        32627
#        51510
#        67328
#        88559
#        105448
#        125677
#        140747
#        162231
#        182486
#        196769
#
# Disc length: 2858 seconds
#
# Revision: 0
# Processed by: cddbd v1.5.2PL0 Copyright (c) Steve Scherf et al.
# Submitted via: ExactAudioCopy v0.99pb5
#
DISCID=a90b280c
DTITLE=Various Artist - Interlude Various Artists
DYEAR=2012
DGENRE=Alternative
TTITLE0=Find You Now
TTITLE1=Bring on the Love
TTITLE2=My Twin
TTITLE3=Apple Tree
TTITLE4=Come Back Baby
TTITLE5=Quarter to Three
TTITLE6=Beyond the Mountain
TTITLE7=Anyway
TTITLE8=Walking
TTITLE9=A Song For You
TTITLE10=You And Your Sister
TTITLE11=Soul of My Soul
EXTD=
EXTT0=
EXTT1=
EXTT2=
EXTT3=
EXTT4=
EXTT5=
EXTT6=
EXTT7=
EXTT8=
EXTT9=
EXTT10=
EXTT11=
PLAYORDER=
